<?xml version="1.0" encoding="UTF-8"?>
<!DOCTYPE svg PUBLIC "-//W3C//DTD SVG 1.1//EN" "http://www.w3.org/Graphics/SVG/1.1/DTD/svg11.dtd">
<!-- Creator: CorelDRAW 2019 (64-Bit) -->
<svg xmlns="http://www.w3.org/2000/svg" xml:space="preserve" width="0.4in" height="0.4in" version="1.1" style="shape-rendering:geometricPrecision; text-rendering:geometricPrecision; image-rendering:optimizeQuality; fill-rule:evenodd; clip-rule:evenodd"
viewBox="0 0 400 400"
 xmlns:xlink="http://www.w3.org/1999/xlink">
 <defs>
  <style type="text/css">
   <![CDATA[
    .fil0 {fill:#FDAA26}
   ]]>
  </style>
 </defs>
 <g id="Layer_x0020_1">
  <metadata id="CorelCorpID_0Corel-Layer"/>
  <path class="fil0" d="M200 33.33c26.22,0 51.03,6.06 73.11,16.85l-95.86 113.53c-18.9,22.38 -19.63,38.94 -5.41,58.74l93.88 130.74c-20.16,8.66 -42.38,13.46 -65.71,13.46 -92.05,0 -166.67,-74.62 -166.67,-166.67 0,-92.05 74.62,-166.67 166.67,-166.67zm123.04 54.24c27.1,29.64 43.63,69.1 43.63,112.42 0,45.05 -17.88,85.92 -46.92,115.91l-87.08 -120.84 90.37 -107.49zm-112.29 -48.34c15.7,0 28.43,12.73 28.43,28.43 0,15.7 -12.73,28.43 -28.43,28.43 -15.7,0 -28.43,-12.73 -28.43,-28.43 0,-15.7 12.73,-28.43 28.43,-28.43zm-36.54 46.68c13.61,0 24.65,11.03 24.65,24.65 0,13.61 -11.04,24.65 -24.65,24.65 -13.61,0 -24.65,-11.04 -24.65,-24.65 0,-13.61 11.03,-24.65 24.65,-24.65zm-30.39 44.22c10.04,0 18.17,8.14 18.17,18.17 0,10.04 -8.13,18.17 -18.17,18.17 -10.04,0 -18.17,-8.14 -18.17,-18.17 0,-10.04 8.14,-18.17 18.17,-18.17z"/>
 </g>
</svg>
